Input #0, mpeg, from '/var/www/html/project/media/video/original/Addestramento_SAF_Fermo.mpeg':
  Duration: 00:00:38.14, start: 0.426289, bitrate: 31811 kb/s
    Stream #0:0[0x1e0]: Video: mpeg2video (High), 1 reference frame, yuv420p(tv, unknown/bt709/unknown, progressive, left), 1920x1080 [SAR 1:1 DAR 16:9], 31104 kb/s, 30 fps, 30 tbr, 90k tbn, 60 tbc
    Stream #0:1[0x1c0]: Audio: mp2, 44100 Hz, stereo, fltp, 384 kb/s
Input #1, png_pipe, from '/var/www/html/project/static/images/templates/logo.png':
  Duration: N/A, bitrate: N/A
    Stream #1:0: Video: png, 1 reference frame, rgba(pc), 1920x1080 [SAR 2835:2835 DAR 16:9], 25 tbr, 25 tbn, 25 tbc
[h264 @ 0x564440c4a1c0] Reinit context to 1280x720, pix_fmt: yuv420p
Input #2, mov,mp4,m4a,3gp,3g2,mj2, from '/var/www/html/project/static/images/templates/Codino.mp4':
  Metadata:
    major_brand     : mp42
    minor_version   : 1
    compatible_brands: isommp41mp42
    creation_time   : 2021-07-11T07:02:58.000000Z
  Duration: 00:00:02.00, start: 0.000000, bitrate: 1007 kb/s
    Stream #2:0(ita): Audio: aac (LC) (mp4a / 0x6134706D), 44100 Hz, stereo, fltp, 102 kb/s (default)
    Metadata:
      creation_time   : 2021-07-11T07:02:58.000000Z
      handler_name    : Core Media Audio
    Stream #2:1(und): Video: h264 (High), 1 reference frame (avc1 / 0x31637661), yuv420p(tv, bt709, progressive, left), 1280x720 [SAR 1:1 DAR 16:9], 813 kb/s, 25 fps, 25 tbr, 25k tbn, 50k tbc (default)
    Metadata:
      creation_time   : 2021-07-11T07:02:58.000000Z
      handler_name    : Core Media Video
[Parsed_scale_0 @ 0x564440d0cdc0] w:1920 h:1080 flags:'bilinear' interl:0
[Parsed_scale_2 @ 0x564440c4ac80] w:1920 h:1080 flags:'bilinear' interl:0
[Parsed_scale_4 @ 0x564440c9a600] w:1920 h:1080 flags:'bilinear' interl:0
Stream mapping:
  Stream #0:0 (mpeg2video) -> scale
  Stream #0:1 (mp2) -> concat:in0:a0
  Stream #1:0 (png) -> scale
  Stream #2:0 (aac) -> concat:in1:a0
  Stream #2:1 (h264) -> scale
  concat:out:v0 -> Stream #0:0 (libx264)
  concat:out:a0 -> Stream #0:1 (aac)
Press [q] to stop, [?] for help
[h264 @ 0x564440d29240] Reinit context to 1280x720, pix_fmt: yuv420p
[Parsed_scale_0 @ 0x564442cccf40] w:1920 h:1080 flags:'bilinear' interl:0
[Parsed_scale_2 @ 0x564442ccde40] w:1920 h:1080 flags:'bilinear' interl:0
[Parsed_scale_4 @ 0x564442ccf800] w:1920 h:1080 flags:'bilinear' interl:0
[graph 0 input from stream 0:0 @ 0x5644429c1cc0] w:1920 h:1080 pixfmt:yuv420p tb:1/90000 fr:30/1 sar:1/1 sws_param:flags=2
[graph 0 input from stream 1:0 @ 0x5644429c2d40] w:1920 h:1080 pixfmt:rgba tb:1/25 fr:25/1 sar:2835/2835 sws_param:flags=2
[graph 0 input from stream 2:1 @ 0x5644429c3dc0] w:1280 h:720 pixfmt:yuv420p tb:1/25000 fr:25/1 sar:1/1 sws_param:flags=2
[graph_0_in_0_1 @ 0x5644429c4d80] tb:1/44100 samplefmt:s16p samplerate:44100 chlayout:0x3
[graph_0_in_2_0 @ 0x5644429c5ec0] tb:1/44100 samplefmt:fltp samplerate:44100 chlayout:0x3
[Parsed_concat_7 @ 0x564442cd1a00] auto-inserting filter 'auto_resampler_0' between the filter 'graph_0_in_2_0' and the filter 'Parsed_concat_7'
[format_out_0_1 @ 0x5644429c1bc0] auto-inserting filter 'auto_resampler_1' between the filter 'Parsed_concat_7' and the filter 'format_out_0_1'
[Parsed_scale_0 @ 0x564442cccf40] w:1920 h:1080 fmt:yuv420p sar:1/1 -> w:1920 h:1080 fmt:yuv420p sar:1/1 flags:0x2
[Parsed_setsar_1 @ 0x5644426b9300] w:1920 h:1080 sar:1/1 dar:16/9 -> sar:1/1 dar:16/9
[Parsed_scale_2 @ 0x564442ccde40] w:1920 h:1080 fmt:rgba sar:2835/2835 -> w:1920 h:1080 fmt:yuva420p sar:1/1 flags:0x2
[Parsed_setsar_3 @ 0x564442cce980] w:1920 h:1080 sar:1/1 dar:16/9 -> sar:1/1 dar:16/9
[Parsed_overlay_6 @ 0x564442cd0c00] main w:1920 h:1080 fmt:yuv420p overlay w:1920 h:1080 fmt:yuva420p
[Parsed_overlay_6 @ 0x564442cd0c00] [framesync @ 0x564442cd0d68] Selected 1/90000 time base
[Parsed_overlay_6 @ 0x564442cd0c00] [framesync @ 0x564442cd0d68] Sync level 2
[Parsed_scale_4 @ 0x564442ccf800] w:1280 h:720 fmt:yuv420p sar:1/1 -> w:1920 h:1080 fmt:yuv420p sar:1/1 flags:0x2
[Parsed_setsar_5 @ 0x564442cd00c0] w:1920 h:1080 sar:1/1 dar:16/9 -> sar:1/1 dar:16/9
[auto_resampler_0 @ 0x564442fd5900] ch:2 chl:stereo fmt:fltp r:44100Hz -> ch:2 chl:stereo fmt:s16p r:44100Hz
[auto_resampler_1 @ 0x564442ccf2c0] ch:2 chl:stereo fmt:s16p r:44100Hz -> ch:2 chl:stereo fmt:fltp r:44100Hz
[libx264 @ 0x564440c9be80] using SAR=1/1
[libx264 @ 0x564440c9be80] using cpu capabilities: MMX2 SSE2Fast SSSE3 SSE4.2 AVX FMA3 BMI2 AVX2
[libx264 @ 0x564440c9be80] profile High, level 4.0
[libx264 @ 0x564440c9be80] 264 - core 155 r2917 0a84d98 - H.264/MPEG-4 AVC codec - Copyleft 2003-2018 - http://www.videolan.org/x264.html - options: cabac=1 ref=1 deblock=1:0:0 analyse=0x3:0x113 me=hex subme=2 psy=1 psy_rd=1.00:0.00 mixed_ref=0 me_range=16 chroma_me=1 trellis=0 8x8dct=1 cqm=0 deadzone=21,11 fast_pskip=1 chroma_qp_offset=0 threads=24 lookahead_threads=8 sliced_threads=0 nr=0 decimate=1 interlaced=0 bluray_compat=0 constrained_intra=0 bframes=3 b_pyramid=2 b_adapt=1 b_bias=0 direct=1 weightb=1 open_gop=0 weightp=1 keyint=250 keyint_min=25 scenecut=40 intra_refresh=0 rc_lookahead=10 rc=crf mbtree=1 crf=18.0 qcomp=0.60 qpmin=0 qpmax=69 qpstep=4 ip_ratio=1.40 aq=1:1.00
Output #0, mp4, to '/var/www/html/project/media/video/watermarks/Addestramento_SAF_Fermo.mp4':
  Metadata:
    encoder         : Lavf58.29.100
    Stream #0:0: Video: h264 (libx264), 1 reference frame (avc1 / 0x31637661), yuv420p(progressive), 1920x1080 [SAR 1:1 DAR 16:9], q=-1--1, 30 fps, 15360 tbn, 30 tbc (default)
    Metadata:
      encoder         : Lavc58.54.100 libx264
    Side data:
      cpb: bitrate max/min/avg: 0/0/0 buffer size: 0 vbv_delay: -1
    Stream #0:1: Audio: aac (LC) (mp4a / 0x6134706D), 44100 Hz, stereo, fltp, delay 1024, 128 kb/s (default)
    Metadata:
      encoder         : Lavc58.54.100 aac
[Parsed_overlay_6 @ 0x564442cd0c00] [framesync @ 0x564442cd0d68] Sync level 0
[Parsed_concat_7 @ 0x564442cd1a00] EOF on in0:v0, 1 streams left in segment.
[Parsed_concat_7 @ 0x564442cd1a00] EOF on in0:a0, 0 streams left in segment.
[Parsed_concat_7 @ 0x564442cd1a00] Segment finished at pts=38138775
[Parsed_concat_7 @ 0x564442cd1a00] EOF on in1:a0, 1 streams left in segment.
[Parsed_concat_7 @ 0x564442cd1a00] EOF on in1:v0, 0 streams left in segment.
[Parsed_concat_7 @ 0x564442cd1a00] Segment finished at pts=40157460
No more output streams to write to, finishing.
frame= 1192 fps= 43 q=-1.0 Lsize=   66749kB time=00:00:40.17 bitrate=13612.2kbits/s speed=1.44x    
[AVIOContext @ 0x564440c42440] Statistics: 0 seeks, 55 writeouts
video:66082kB audio:625kB subtitle:0kB other streams:0kB global headers:0kB muxing overhead: 0.063404%
Input file #0 (/var/www/html/project/media/video/original/Addestramento_SAF_Fermo.mpeg):
  Input stream #0:0 (video): 1142 packets read (147892324 bytes); 1142 frames decoded; 
  Input stream #0:1 (audio): 1460 packets read (1830662 bytes); 1460 frames decoded (1681920 samples); 
  Total: 2602 packets (149722986 bytes) demuxed
Input file #1 (/var/www/html/project/static/images/templates/logo.png):
  Input stream #1:0 (video): 1 packets read (111578 bytes); 1 frames decoded; 
  Total: 1 packets (111578 bytes) demuxed
Input file #2 (/var/www/html/project/static/images/templates/Codino.mp4):
  Input stream #2:0 (audio): 89 packets read (26579 bytes); 87 frames decoded (89024 samples); 
  Input stream #2:1 (video): 50 packets read (203365 bytes); 50 frames decoded; 
  Total: 139 packets (229944 bytes) demuxed
Output file #0 (/var/www/html/project/media/video/watermarks/Addestramento_SAF_Fermo.mp4):
  Output stream #0:0 (video): 1192 frames encoded; 1192 packets muxed (67668227 bytes); 
  Output stream #0:1 (audio): 1730 frames encoded (1770944 samples); 1731 packets muxed (639583 bytes); 
  Total: 2923 packets (68307810 bytes) muxed
[AVIOContext @ 0x564440c9b640] Statistics: 2 seeks, 264 writeouts
[libx264 @ 0x564440c9be80] frame I:11    Avg QP:15.36  size:248003
[libx264 @ 0x564440c9be80] frame P:603   Avg QP:19.74  size: 86776
[libx264 @ 0x564440c9be80] frame B:578   Avg QP:21.96  size: 21822
[libx264 @ 0x564440c9be80] consecutive B-frames: 23.8% 28.0% 19.6% 28.5%
[libx264 @ 0x564440c9be80] mb I  I16..4: 12.7% 31.7% 55.6%
[libx264 @ 0x564440c9be80] mb P  I16..4:  1.7% 17.3%  2.2%  P16..4: 38.4% 16.4% 14.5%  0.0%  0.0%    skip: 9.5%
[libx264 @ 0x564440c9be80] mb B  I16..4:  0.4%  4.6%  0.2%  B16..8: 25.2%  8.0%  1.3%  direct:12.4%  skip:48.0%  L0:42.0% L1:33.6% BI:24.4%
[libx264 @ 0x564440c9be80] 8x8 transform intra:79.6% inter:55.2%
[libx264 @ 0x564440c9be80] coded y,uvDC,uvAC intra: 76.1% 76.2% 23.8% inter: 29.7% 30.1% 2.5%
[libx264 @ 0x564440c9be80] i16 v,h,dc,p: 49% 19% 21% 11%
[libx264 @ 0x564440c9be80] i8 v,h,dc,ddl,ddr,vr,hd,vl,hu: 26% 25% 29%  3%  4%  3%  3%  3%  3%
[libx264 @ 0x564440c9be80] i4 v,h,dc,ddl,ddr,vr,hd,vl,hu: 22% 18% 12%  7%  9%  8%  8%  7%  8%
[libx264 @ 0x564440c9be80] i8c dc,h,v,p: 45% 25% 23%  7%
[libx264 @ 0x564440c9be80] Weighted P-Frames: Y:4.0% UV:0.3%
[libx264 @ 0x564440c9be80] kb/s:13488.54
[aac @ 0x564440c5af00] Qavg: 1336.445
[AVIOContext @ 0x564440c4b3c0] Statistics: 157904849 bytes read, 3 seeks
[AVIOContext @ 0x564440c9ef40] Statistics: 111578 bytes read, 0 seeks
[AVIOContext @ 0x564440c89400] Statistics: 1530915 bytes read, 42 seeks
